<mxfile host="app.diagrams.net" modified="2023-10-17T04:57:24.911Z" agent="Mozilla/5.0 (Windows NT 10.0; Win64; x64; rv:109.0) Gecko/20100101 Firefox/118.0" etag="Gx32j9V1eq41Shr9b8kD" version="22.0.4" type="github">
  <diagram name="Page-1" id="PUl4ZuEwKHdQot3IPrLN">
    <mxGraphModel dx="880" dy="1570" grid="1" gridSize="10" guides="1" tooltips="1" connect="1" arrows="1" fold="1" page="1" pageScale="1" pageWidth="850" pageHeight="1100" math="0" shadow="0">
      <root>
        <mxCell id="0" />
        <mxCell id="1" parent="0" />
        <mxCell id="dYSeT-IemVLtgPIhnyvB-1" style="edgeStyle=orthogonalEdgeStyle;rounded=0;orthogonalLoop=1;jettySize=auto;html=1;exitX=1;exitY=0.5;exitDx=0;exitDy=0;" edge="1" parent="1" source="dYSeT-IemVLtgPIhnyvB-2">
          <mxGeometry relative="1" as="geometry">
            <mxPoint x="560" y="70" as="targetPoint" />
          </mxGeometry>
        </mxCell>
        <mxCell id="dYSeT-IemVLtgPIhnyvB-2" value="&lt;div&gt;Luassegitiga&lt;/div&gt;&lt;div&gt;a&lt;/div&gt;&lt;div&gt;t&lt;br&gt;&lt;/div&gt;" style="shape=parallelogram;perimeter=parallelogramPerimeter;whiteSpace=wrap;html=1;fixedSize=1;" vertex="1" parent="1">
          <mxGeometry x="365" y="40" width="120" height="60" as="geometry" />
        </mxCell>
        <mxCell id="dYSeT-IemVLtgPIhnyvB-3" style="edgeStyle=orthogonalEdgeStyle;rounded=0;orthogonalLoop=1;jettySize=auto;html=1;exitX=0.5;exitY=1;exitDx=0;exitDy=0;exitPerimeter=0;" edge="1" parent="1" source="dYSeT-IemVLtgPIhnyvB-4">
          <mxGeometry relative="1" as="geometry">
            <mxPoint x="425" y="40" as="targetPoint" />
          </mxGeometry>
        </mxCell>
        <mxCell id="dYSeT-IemVLtgPIhnyvB-4" value="START" style="strokeWidth=2;html=1;shape=mxgraph.flowchart.terminator;whiteSpace=wrap;" vertex="1" parent="1">
          <mxGeometry x="375" y="-90" width="100" height="60" as="geometry" />
        </mxCell>
        <mxCell id="dYSeT-IemVLtgPIhnyvB-5" value="" style="edgeStyle=orthogonalEdgeStyle;rounded=0;orthogonalLoop=1;jettySize=auto;html=1;" edge="1" parent="1" source="dYSeT-IemVLtgPIhnyvB-6" target="dYSeT-IemVLtgPIhnyvB-8">
          <mxGeometry relative="1" as="geometry" />
        </mxCell>
        <mxCell id="dYSeT-IemVLtgPIhnyvB-6" value="&lt;div&gt;Luas Segitiga&lt;/div&gt;&lt;div&gt;= 1/2*a*t&lt;br&gt;&lt;/div&gt;" style="rounded=1;whiteSpace=wrap;html=1;absoluteArcSize=1;arcSize=14;strokeWidth=2;" vertex="1" parent="1">
          <mxGeometry x="570" y="30" width="100" height="70" as="geometry" />
        </mxCell>
        <mxCell id="dYSeT-IemVLtgPIhnyvB-7" style="edgeStyle=orthogonalEdgeStyle;rounded=0;orthogonalLoop=1;jettySize=auto;html=1;exitX=0.5;exitY=1;exitDx=0;exitDy=0;" edge="1" parent="1" source="dYSeT-IemVLtgPIhnyvB-8">
          <mxGeometry relative="1" as="geometry">
            <mxPoint x="620" y="330" as="targetPoint" />
          </mxGeometry>
        </mxCell>
        <mxCell id="dYSeT-IemVLtgPIhnyvB-8" value="luas segitiga" style="shape=parallelogram;perimeter=parallelogramPerimeter;whiteSpace=wrap;html=1;fixedSize=1;rounded=1;arcSize=14;strokeWidth=2;" vertex="1" parent="1">
          <mxGeometry x="560" y="185" width="120" height="60" as="geometry" />
        </mxCell>
        <mxCell id="dYSeT-IemVLtgPIhnyvB-9" value="End" style="strokeWidth=2;html=1;shape=mxgraph.flowchart.terminator;whiteSpace=wrap;" vertex="1" parent="1">
          <mxGeometry x="570" y="340" width="100" height="60" as="geometry" />
        </mxCell>
      </root>
    </mxGraphModel>
  </diagram>
</mxfile>
